<?xml version="1.0" standalone="no"?>
<!DOCTYPE svg PUBLIC "-//W3C//DTD SVG 20010904//EN"
 "http://www.w3.org/TR/2001/REC-SVG-20010904/DTD/svg10.dtd">
<svg version="1.0" xmlns="http://www.w3.org/2000/svg"
 width="768.000000pt" height="768.000000pt" viewBox="0 0 768.000000 768.000000"
 preserveAspectRatio="xMidYMid meet">
<metadata>
Created by potrace 1.14, written by Peter Selinger 2001-2017
</metadata>
<g transform="translate(0.000000,768.000000) scale(0.100000,-0.100000)"
fill="#000000" stroke="none">
<path d="M5540 7469 c-175 -28 -318 -85 -400 -160 -48 -44 -44 -45 52 -10 77
28 215 51 307 51 95 0 135 -20 150 -77 7 -25 11 -238 11 -605 l0 -567 76 -78
c170 -175 344 -418 451 -628 53 -105 78 -162 138 -315 29 -73 96 -331 120
-458 22 -119 36 -303 35 -462 -1 -197 3 -199 10 -5 l5 160 33 3 c30 3 32 6 32
43 0 32 4 39 19 39 20 0 33 -30 21 -50 -6 -9 -9 -8 -13 6 -4 14 -5 13 -6 -6
-1 -19 4 -26 17 -26 16 0 19 7 17 38 -2 25 2 38 10 38 16 0 26 -49 20 -92 l-5
-33 11 35 c14 42 -4 290 -25 367 -8 27 -17 68 -20 93 -9 57 -36 179 -46 205
-4 11 -20 58 -35 105 -42 131 -128 335 -184 438 -129 236 -327 509 -470 647
l-41 39 0 581 c0 367 -4 594 -10 617 -17 59 -53 78 -147 77 -43 -1 -103 -5
-133 -10z m1037 -2661 c-3 -8 -6 -5 -6 6 -1 11 2 17 5 13 3 -3 4 -12 1 -19z
m-140 -50 c-3 -8 -6 -5 -6 6 -1 11 2 17 5 13 3 -3 4 -12 1 -19z m170 -110 c-3
-7 -5 -2 -5 12 0 14 2 19 5 13 2 -7 2 -19 0 -25z m-34 3 c2 -10 1 -25 -4 -32
-6 -10 -9 -4 -9 19 0 36 5 42 13 13z"/>
<path d="M3510 7005 c-726 -91 -1376 -443 -1837 -995 -499 -596 -728 -1357
-642 -2127 51 -465 213 -898 479 -1287 317 -463 779 -826 1325 -1041 119 -47
426 -129 575 -154 145 -24 440 -32 644 -18 106 7 138 16 65 18 l-44 1 40 8
c22 4 48 4 57 -1 21 -11 84 -10 118 2 18 6 8 7 -35 5 -49 -4 -55 -3 -30 5 17
5 57 8 90 5 48 -4 54 -3 30 5 -17 5 -64 7 -107 3 l-78 -6 0 46 c0 39 3 46 20
46 18 0 60 32 60 45 0 3 -19 3 -42 0 l-43 -5 50 14 c58 17 108 17 94 0 -5 -6
-5 -15 -1 -19 4 -5 3 -6 -3 -3 -5 3 -19 -3 -29 -13 -19 -19 -19 -19 17 -19 36
0 37 1 37 35 0 32 3 35 30 36 41 2 47 3 54 10 4 4 35 5 69 3 l62 -3 -34 15
c-28 12 -45 13 -85 4 -352 -72 -887 -65 -1201 16 -73 19 -233 72 -341 112
-145 54 -406 194 -511 273 -29 21 -55 39 -57 39 -6 0 -7 0 -136 106 -195 160
-380 368 -535 599 -73 111 -207 375 -254 502 -186 507 -217 1043 -90 1557 115
466 343 870 683 1212 236 237 434 379 721 519 249 122 505 202 775 242 167 26
589 25 755 -1 152 -23 357 -75 505 -127 63 -22 123 -43 133 -46 15 -5 17 4 17
99 l0 105 -60 22 c-190 70 -353 111 -580 147 -145 23 -572 28 -730 9z m598
-5452 c-16 -2 -40 -2 -55 0 -16 2 -3 4 27 4 30 0 43 -2 28 -4z m-285 -10 c-13
-2 -33 -2 -45 0 -13 2 -3 4 22 4 25 0 35 -2 23 -4z m160 0 c-13 -2 -33 -2 -45
0 -13 2 -3 4 22 4 25 0 35 -2 23 -4z m-293 -13 c-8 -5 -22 -9 -30 -9 -10 0 -8
3 5 9 27 12 43 12 25 0z m463 3 c-7 -2 -21 -2 -30 0 -10 3 -4 5 12 5 17 0 24
-2 18 -5z m-225 -100 c-10 -2 -28 -2 -40 0 -13 2 -5 4 17 4 22 1 32 -1 23 -4z
m172 -3 c20 -6 21 -8 5 -8 -11 0 -29 3 -40 8 -25 11 1 11 35 0z m-663 -6 c-3
-3 -12 -4 -19 -1 -8 3 -5 6 6 6 11 1 17 -2 13 -5z m598 -4 c3 -5 -3 -10 -14
-10 -12 0 -21 5 -21 10 0 6 6 10 14 10 8 0 18 -4 21 -10z m-282 -27 c-7 -2
-19 -2 -25 0 -7 3 -2 5 12 5 14 0 19 -2 13 -5z m215 0 c-10 -2 -28 -2 -40 0
-13 2 -5 4 17 4 22 1 32 -1 23 -4z m75 0 c-7 -2 -21 -2 -30 0 -10 3 -4 5 12 5
17 0 24 -2 18 -5z"/>
<path d="M3610 6514 c-310 -38 -543 -105 -795 -230 -318 -157 -573 -361 -795
-637 -298 -372 -467 -811 -501 -1301 -40 -573 131 -1123 497 -1596 38 -49 72
-89 75 -89 3 -1 9 45 13 102 14 222 90 393 237 531 191 180 442 279 909 355
137 22 358 42 685 61 119 7 182 15 187 23 11 18 10 243 -3 355 -36 336 -148
504 -389 585 -59 20 -84 22 -265 21 -174 -1 -218 -4 -340 -28 -174 -34 -439
-98 -566 -137 -53 -16 -103 -29 -111 -29 -11 0 -30 42 -63 135 -26 74 -45 140
-43 146 5 14 56 34 338 129 901 302 1514 320 1870 55 67 -50 144 -131 188
-200 l46 -69 -1 -276 c-1 -517 -50 -857 -170 -1180 -69 -185 -165 -340 -285
-457 -76 -76 -174 -152 -195 -153 -10 0 -13 85 -13 394 l0 395 -32 -4 c-18 -2
-115 -7 -214 -10 -315 -9 -607 -57 -742 -122 -77 -37 -172 -137 -216 -226
-129 -261 -20 -581 238 -703 219 -104 570 -77 858 66 175 88 303 191 445 360
164 196 309 510 363 790 54 277 53 222 52 1515 l-1 1200 -73 34 c-167 76 -361
136 -567 173 -91 16 -167 21 -351 23 -129 2 -251 1 -270 -1z"/>
<path d="M5657 4960 c-4 -681 -8 -775 -44 -1005 -9 -60 -17 -129 -18 -152 0
-22 -3 -39 -6 -37 -4 2 -10 -18 -14 -44 -4 -26 -15 -78 -25 -117 -10 -38 -22
-81 -25 -95 -14 -51 -69 -215 -76 -225 -4 -5 -21 -45 -39 -87 -17 -43 -35 -78
-40 -78 -13 0 -22 -51 -10 -65 8 -9 7 -14 -4 -18 -11 -4 -13 -1 -10 11 3 9 -6
4 -20 -13 -24 -27 -31 -46 -27 -68 1 -5 -2 -6 -7 -3 -8 5 -72 -73 -72 -87 0
-10 -196 -204 -225 -223 -33 -21 -67 -48 -98 -78 -17 -16 -19 -28 -14 -120 3
-55 7 -110 10 -121 3 -11 6 -36 7 -55 1 -30 3 -32 11 -15 7 15 8 10 5 -20 -3
-22 -2 -32 0 -22 7 23 24 22 24 -3 0 -25 26 -26 52 -3 10 9 21 13 25 9 9 -9
-38 -47 -49 -40 -4 3 -8 0 -8 -5 0 -15 5 -14 58 14 74 38 75 40 10 42 -39 1
-56 -2 -47 -8 11 -7 11 -9 -3 -9 -10 0 -18 7 -18 16 0 9 -7 22 -15 28 -10 7
-12 19 -8 35 6 23 7 23 14 5 7 -16 8 -17 8 -1 1 10 9 17 21 17 17 0 20 7 20
40 0 33 -3 40 -20 40 -17 0 -20 7 -20 40 l0 40 40 0 40 0 0 40 0 40 40 0 40 0
0 40 0 40 40 0 c40 0 40 0 40 39 0 22 -5 41 -12 43 -9 3 -9 6 0 12 7 4 12 2
12 -3 0 -6 18 -11 40 -11 l40 0 0 60 c0 64 -9 74 -34 38 -9 -12 -19 -18 -23
-14 -10 10 10 39 35 51 12 5 21 14 18 20 -2 6 14 9 40 6 41 -3 44 -2 44 23 0
18 4 24 15 20 8 -4 15 -1 15 5 0 6 -5 10 -11 9 -5 -2 -21 16 -34 40 -14 23
-20 42 -15 42 5 0 12 -10 15 -23 5 -19 11 -22 50 -19 42 4 45 6 45 33 0 27 3
29 40 29 l40 0 0 40 c0 33 3 40 20 40 17 0 20 7 20 40 l0 40 40 0 40 0 0 40
c0 33 3 40 20 40 17 0 20 7 20 40 l0 40 40 0 40 0 0 50 0 50 40 0 c38 0 40 2
40 30 0 28 2 30 40 30 l40 0 0 80 0 80 40 0 40 0 0 40 0 40 44 0 44 0 -4 68
-4 67 16 -64 c15 -60 15 -65 -1 -74 -15 -8 -16 -18 -11 -69 4 -33 3 -58 -1
-55 -5 3 -10 -13 -12 -36 -1 -23 1 -39 4 -35 13 13 70 297 75 368 0 8 6 74 12
145 32 377 -73 859 -265 1215 -42 78 -169 273 -211 325 l-24 30 -5 -685z m453
-970 c0 -5 -4 -10 -10 -10 -5 0 -10 5 -10 10 0 6 5 10 10 10 6 0 10 -4 10 -10z
m30 -6 c0 -8 -8 -23 -17 -32 -16 -16 -16 -16 -10 1 4 10 7 25 7 33 0 8 5 14
10 14 6 0 10 -7 10 -16z m-33 -96 c-3 -7 -5 -2 -5 12 0 14 2 19 5 13 2 -7 2
-19 0 -25z m-440 -20 c-3 -8 -6 -5 -6 6 -1 11 2 17 5 13 3 -3 4 -12 1 -19z
m460 -20 c-3 -7 -5 -2 -5 12 0 14 2 19 5 13 2 -7 2 -19 0 -25z m-30 -155 c-3
-10 -5 -2 -5 17 0 19 2 27 5 18 2 -10 2 -26 0 -35z m-506 -45 c-8 -20 -9 -18
-8 15 1 24 4 32 9 23 4 -8 4 -25 -1 -38z m-80 -275 c-12 -20 -14 -14 -5 12 4
9 9 14 11 11 3 -2 0 -13 -6 -23z m9 -83 c0 -12 -2 -12 -9 -2 -4 8 -11 13 -15
13 -19 -3 -26 0 -26 10 0 5 4 8 9 4 5 -3 13 0 17 6 8 13 24 -7 24 -31z m-90
-136 c0 -3 -7 -12 -15 -20 -16 -17 -18 -14 -9 10 6 15 24 23 24 10z m-156
-239 c-4 -8 -11 -15 -16 -15 -6 0 -5 6 2 15 7 8 14 15 16 15 2 0 1 -7 -2 -15z
m-116 -145 c-7 -11 -20 -20 -28 -20 -10 0 -7 7 10 20 31 25 33 25 18 0z m-60
-54 c-7 -8 -15 -12 -17 -11 -5 6 10 25 20 25 5 0 4 -6 -3 -14z m19 -28 c-3 -8
-6 -5 -6 6 -1 11 2 17 5 13 3 -3 4 -12 1 -19z m-18 -11 c6 -8 8 -17 4 -20 -7
-8 -33 11 -33 24 0 13 16 11 29 -4z m-49 -12 c-7 -9 -15 -13 -17 -11 -7 7 7
26 19 26 6 0 6 -6 -2 -15z m27 -21 c-3 -3 -12 -4 -19 -1 -8 3 -5 6 6 6 11 1
17 -2 13 -5z m-142 -74 c-3 -5 -11 -10 -16 -10 -6 0 -7 5 -4 10 3 6 11 10 16
10 6 0 7 -4 4 -10z m-15 -212 c0 -49 -5 -47 -14 5 -4 23 -3 37 4 37 5 0 10
-19 10 -42z m29 15 c0 -25 -1 -26 -9 -8 -12 27 -12 35 0 35 6 0 10 -12 9 -27z"/>
<path d="M6662 4228 c-1 -36 -7 -68 -13 -70 -7 -2 -8 -34 -2 -103 l9 -100 8
125 c4 69 6 145 4 170 -4 37 -5 33 -6 -22z m-5 -135 c-3 -10 -5 -2 -5 17 0 19
2 27 5 18 2 -10 2 -26 0 -35z"/>
<path d="M6472 3945 c0 -16 2 -22 5 -12 2 9 2 23 0 30 -3 6 -5 -1 -5 -18z"/>
<path d="M6642 3900 c0 -14 2 -19 5 -12 2 6 2 18 0 25 -3 6 -5 1 -5 -13z"/>
<path d="M6461 3861 c-1 -27 2 -32 11 -23 8 8 8 17 0 34 -10 22 -11 21 -11
-11z"/>
<path d="M6451 3785 c0 -11 6 -31 14 -45 18 -32 18 -25 0 25 -8 22 -14 31 -14
20z"/>
<path d="M6625 3759 c-4 -6 -5 -12 -2 -15 2 -3 7 2 10 11 7 17 1 20 -8 4z"/>
<path d="M6441 3724 c0 -11 3 -14 6 -6 3 7 2 16 -1 19 -3 4 -6 -2 -5 -13z"/>
<path d="M6424 3655 c-9 -37 0 -40 13 -5 6 17 7 30 2 30 -5 0 -11 -11 -15 -25z"/>
<path d="M6600 3669 c0 -5 5 -7 10 -4 6 3 10 8 10 11 0 2 -4 4 -10 4 -5 0 -10
-5 -10 -11z"/>
<path d="M6000 3575 c0 -22 3 -24 19 -16 31 17 34 41 6 41 -20 0 -25 -5 -25
-25z"/>
<path d="M6401 3564 c0 -11 3 -14 6 -6 3 7 2 16 -1 19 -3 4 -6 -2 -5 -13z"/>
<path d="M6386 3504 c-4 -20 -5 -38 -3 -40 3 -3 8 11 11 32 4 20 5 38 3 40 -3
3 -8 -11 -11 -32z"/>
<path d="M6005 3490 c-4 -17 -4 -49 0 -72 l7 -42 15 28 c22 41 42 116 32 116
-5 0 -9 -6 -9 -12 0 -9 -4 -8 -10 2 -8 11 -9 8 -4 -12 3 -16 -1 -37 -11 -55
l-16 -28 6 53 c6 57 0 70 -10 22z"/>
<path d="M6571 3504 c0 -11 3 -14 6 -6 3 7 2 16 -1 19 -3 4 -6 -2 -5 -13z"/>
<path d="M5930 3356 c0 -2 7 -17 15 -32 15 -29 22 -13 9 20 -5 14 -24 23 -24
12z"/>
<path d="M5968 3294 c-18 -38 -34 -72 -36 -76 -2 -5 1 -8 6 -8 5 0 17 21 27
48 10 26 25 57 33 70 8 12 12 25 9 29 -4 3 -21 -25 -39 -63z"/>
<path d="M6491 3344 c0 -11 3 -14 6 -6 3 7 2 16 -1 19 -3 4 -6 -2 -5 -13z"/>
<path d="M6520 3349 c0 -5 5 -7 10 -4 6 3 10 8 10 11 0 2 -4 4 -10 4 -5 0 -10
-5 -10 -11z"/>
<path d="M5920 3302 c0 -17 4 -34 10 -37 6 -4 7 6 3 27 -8 44 -13 48 -13 10z"/>
<path d="M6332 3300 c0 -14 2 -19 5 -12 2 6 2 18 0 25 -3 6 -5 1 -5 -13z"/>
<path d="M6496 3265 c-9 -26 -7 -32 5 -12 6 10 9 21 6 23 -2 3 -7 -2 -11 -11z"/>
<path d="M5870 3190 c0 -5 5 -10 10 -10 6 0 10 5 10 10 0 6 -4 10 -10 10 -5 0
-10 -4 -10 -10z"/>
<path d="M5923 3185 c-3 -9 -3 -18 -1 -21 3 -3 8 4 11 16 6 23 -1 27 -10 5z"/>
<path d="M5850 3119 c-12 -8 -10 -9 7 -4 19 5 22 3 16 -12 -3 -10 -10 -24 -16
-30 -6 -8 -6 -13 0 -13 14 0 36 46 29 59 -9 14 -17 14 -36 0z"/>
<path d="M6231 3083 c-1 -6 -4 -20 -7 -30 -5 -17 -5 -17 6 0 6 10 9 23 6 30
-3 9 -5 9 -5 0z"/>
<path d="M5843 3033 c-3 -10 -11 -25 -17 -33 -6 -9 -1 -5 12 8 12 13 22 27 22
33 0 15 -10 10 -17 -8z"/>
<path d="M5815 3030 c3 -5 8 -10 11 -10 2 0 4 5 4 10 0 6 -5 10 -11 10 -5 0
-7 -4 -4 -10z"/>
<path d="M5762 3005 c0 -16 2 -22 5 -12 2 9 2 23 0 30 -3 6 -5 -1 -5 -18z"/>
<path d="M5787 2954 c3 -7 1 -14 -5 -14 -6 0 -12 5 -14 12 -2 6 -4 -5 -4 -25
0 -20 1 -35 1 -34 1 1 11 16 23 33 18 26 19 33 7 37 -9 4 -12 1 -8 -9z"/>
<path d="M6346 2913 c-6 -14 -5 -15 5 -6 7 7 10 15 7 18 -3 3 -9 -2 -12 -12z"/>
<path d="M6136 2891 c-3 -5 1 -11 9 -14 9 -4 12 -1 8 9 -6 16 -10 17 -17 5z"/>
<path d="M5725 2870 c3 -5 8 -10 11 -10 2 0 4 5 4 10 0 6 -5 10 -11 10 -5 0
-7 -4 -4 -10z"/>
<path d="M5708 2838 c3 -13 1 -19 -5 -15 -10 7 -38 -42 -29 -51 3 -3 9 4 13
14 4 10 16 26 27 35 10 9 16 21 12 27 -12 20 -24 13 -18 -10z"/>
<path d="M6270 2789 c0 -5 5 -7 10 -4 6 3 10 8 10 11 0 2 -4 4 -10 4 -5 0 -10
-5 -10 -11z"/>
<path d="M5609 2753 c-7 -33 -6 -74 1 -64 4 7 5 22 3 32 -3 10 0 19 6 19 6 0
11 5 11 10 0 12 -19 14 -21 3z"/>
<path d="M6040 2735 c-7 -9 -8 -15 -2 -15 5 0 12 7 16 15 3 8 4 15 2 15 -2 0
-9 -7 -16 -15z"/>
<path d="M5560 2695 c-7 -9 -11 -17 -8 -20 2 -2 12 4 21 15 9 11 13 20 8 20
-5 0 -14 -7 -21 -15z"/>
<path d="M5526 2645 c-3 -10 -12 -15 -21 -11 -20 7 -19 0 2 -21 17 -17 19 -17
45 11 29 30 38 46 15 27 -9 -7 -17 -7 -24 0 -7 7 -12 5 -17 -6z m14 -20 c-7
-9 -15 -13 -17 -11 -7 7 7 26 19 26 6 0 6 -6 -2 -15z"/>
<path d="M5444 2571 c0 -13 5 -17 16 -13 13 5 13 3 1 -11 -7 -9 -18 -14 -24
-10 -6 3 -7 1 -3 -6 9 -14 -33 -51 -50 -44 -7 2 -15 0 -19 -6 -4 -7 0 -8 11
-4 13 5 15 3 9 -8 -11 -18 16 2 66 50 34 33 35 35 17 53 -22 22 -24 22 -24 -1z"/>
<path d="M5490 2579 c0 -5 5 -7 10 -4 6 3 10 8 10 11 0 2 -4 4 -10 4 -5 0 -10
-5 -10 -11z"/>
<path d="M5917 2566 c-4 -10 -1 -13 8 -9 8 3 12 9 9 14 -7 12 -11 11 -17 -5z"/>
<path d="M5397 2533 c-4 -3 -7 -11 -7 -17 0 -6 5 -5 12 2 6 6 9 14 7 17 -3 3
-9 2 -12 -2z"/>
<path d="M5879 2513 c-13 -16 -12 -17 4 -4 9 7 17 15 17 17 0 8 -8 3 -21 -13z"/>
<path d="M5292 2438 c-7 -7 -12 -16 -12 -21 0 -5 7 -1 16 8 9 9 14 18 12 20
-2 3 -10 -1 -16 -7z"/>
<path d="M5350 2439 c0 -5 5 -7 10 -4 6 3 10 8 10 11 0 2 -4 4 -10 4 -5 0 -10
-5 -10 -11z"/>
<path d="M5311 2414 c-7 -8 -11 -17 -9 -20 3 -2 13 5 23 16 10 11 14 20 9 20
-5 -1 -15 -8 -23 -16z"/>
<path d="M5222 2388 c-7 -7 -12 -16 -12 -21 0 -5 7 -1 16 8 9 9 14 18 12 20
-2 3 -10 -1 -16 -7z"/>
<path d="M5273 2393 c4 -6 -8 -20 -26 -32 -39 -25 -27 -28 14 -4 31 19 35 28
17 39 -6 4 -8 3 -5 -3z"/>
<path d="M5201 2333 c-1 -6 -10 -15 -21 -18 -19 -6 -29 -25 -12 -25 17 1 44
30 39 42 -4 9 -6 9 -6 1z"/>
<path d="M5120 2269 c0 -5 5 -7 10 -4 6 3 10 8 10 11 0 2 -4 4 -10 4 -5 0 -10
-5 -10 -11z"/>
<path d="M4920 2186 c0 -8 3 -22 6 -31 5 -13 8 -14 15 -3 13 20 11 35 -6 42
-9 3 -15 0 -15 -8z"/>
<path d="M4050 2083 c-47 -18 -114 -44 -150 -58 -36 -13 -95 -35 -131 -49 -56
-22 -106 -36 -249 -71 -8 -2 -17 -4 -20 -5 -3 -2 36 -8 85 -15 110 -16 376
-19 482 -5 142 18 145 20 138 38 -4 9 -18 55 -31 102 -14 47 -28 88 -32 91 -4
3 -45 -10 -92 -28z m-103 -69 c-3 -3 -12 -4 -19 -1 -8 3 -5 6 6 6 11 1 17 -2
13 -5z"/>
<path d="M5320 2010 c-9 -6 -10 -10 -3 -10 6 0 15 5 18 10 8 12 4 12 -15 0z"/>
<path d="M5315 1800 c-3 -5 -1 -10 4 -10 6 0 11 5 11 10 0 6 -2 10 -4 10 -3 0
-8 -4 -11 -10z"/>
<path d="M5015 1790 c-3 -6 1 -7 9 -4 18 7 21 14 7 14 -6 0 -13 -4 -16 -10z"/>
<path d="M4890 1774 c-24 -9 -29 -13 -14 -13 11 -1 29 6 40 14 22 17 20 17
-26 -1z"/>
<path d="M4958 1763 c6 -2 18 -2 25 0 6 3 1 5 -13 5 -14 0 -19 -2 -12 -5z"/>
<path d="M5196 1737 c3 -10 9 -15 12 -12 3 3 0 11 -7 18 -10 9 -11 8 -5 -6z"/>
<path d="M4790 1729 c0 -5 5 -7 10 -4 6 3 10 8 10 11 0 2 -4 4 -10 4 -5 0 -10
-5 -10 -11z"/>
<path d="M4710 1708 c-19 -5 -39 -14 -45 -20 -7 -8 -4 -9 10 -3 11 4 35 11 53
15 36 9 55 21 31 19 -8 0 -30 -5 -49 -11z"/>
<path d="M4790 1690 c0 -5 5 -10 11 -10 5 0 7 5 4 10 -3 6 -8 10 -11 10 -2 0
-4 -4 -4 -10z"/>
<path d="M4606 1671 c-3 -5 -26 -12 -51 -15 -24 -4 -48 -12 -51 -18 -5 -7 2
-9 22 -4 16 4 41 10 57 13 15 3 27 9 27 13 0 5 8 11 18 13 15 4 15 5 0 6 -9 0
-19 -3 -22 -8z"/>
<path d="M5060 1660 c-9 -6 -10 -10 -3 -10 6 0 15 5 18 10 8 12 4 12 -15 0z"/>
<path d="M4552 1633 c-21 -8 -4 -21 23 -16 13 3 22 9 19 14 -6 10 -21 10 -42
2z"/>
<path d="M4918 1593 c7 -3 16 -2 19 1 4 3 -2 6 -13 5 -11 0 -14 -3 -6 -6z"/>
<path d="M4748 1563 c7 -3 16 -2 19 1 4 3 -2 6 -13 5 -11 0 -14 -3 -6 -6z"/>
<path d="M4838 1563 c7 -3 16 -2 19 1 4 3 -2 6 -13 5 -11 0 -14 -3 -6 -6z"/>
<path d="M4740 1529 c0 -5 5 -7 10 -4 6 3 10 8 10 11 0 2 -4 4 -10 4 -5 0 -10
-5 -10 -11z"/>
<path d="M4480 1510 c0 -6 17 -10 37 -10 43 0 41 5 -4 13 -19 4 -33 2 -33 -3z"/>
<path d="M4606 1494 c-21 -7 -42 -11 -46 -9 -5 3 -11 1 -15 -5 -13 -20 84 -1
110 21 13 13 -3 10 -49 -7z"/>
<path d="M4309 1491 c8 -5 11 -15 8 -23 -3 -9 1 -15 9 -15 8 0 14 10 14 24 0
17 -6 23 -22 23 -17 0 -20 -3 -9 -9z"/>
<path d="M4393 1433 c9 -2 23 -2 30 0 6 3 -1 5 -18 5 -16 0 -22 -2 -12 -5z"/>
<path d="M1082 1023 c-43 -117 -222 -556 -235 -577 -9 -14 -32 -30 -50 -35
-25 -7 -9 -9 73 -9 58 0 94 3 80 7 -36 10 -36 43 -2 131 l28 75 107 3 c59 1
107 1 107 -2 0 -2 15 -46 33 -97 19 -52 32 -100 30 -106 -4 -10 20 -13 99 -12
102 1 108 2 58 13 -40 8 -74 78 -220 449 -41 103 -79 187 -86 187 -7 0 -17
-12 -22 -27z m45 -243 c18 -52 35 -99 36 -105 1 -6 -33 -11 -82 -13 -65 -2
-82 0 -79 10 3 7 20 57 39 111 18 53 38 96 42 94 5 -1 25 -45 44 -97z"/>
<path d="M2701 763 c-63 -159 -123 -300 -133 -315 -11 -15 -34 -32 -51 -37
-25 -7 -7 -9 73 -9 58 0 94 3 80 7 -35 10 -35 35 -2 127 l30 79 104 3 105 3
37 -97 c29 -75 34 -99 25 -110 -10 -12 21 -14 212 -13 123 1 212 4 196 6 -48
8 -54 31 -61 251 -4 111 -4 202 -1 202 3 0 111 -107 239 -237 135 -138 237
-234 243 -230 8 5 12 93 12 280 1 149 4 287 7 305 5 25 14 36 38 46 28 11 20
13 -79 13 -77 0 -101 -3 -79 -9 55 -14 57 -21 62 -254 3 -121 1 -214 -4 -213
-5 1 -115 111 -244 244 -129 134 -238 241 -242 237 -4 -4 -8 -140 -10 -303 -2
-233 -6 -300 -17 -312 -9 -12 -29 -17 -65 -17 -83 0 -87 8 -251 418 -49 122
-94 222 -100 222 -5 0 -61 -129 -124 -287z m147 17 c17 -47 33 -93 37 -102 6
-16 -1 -18 -79 -18 l-86 0 6 28 c4 15 13 39 20 54 8 15 14 31 14 37 0 23 41
103 49 95 5 -5 22 -47 39 -94z"/>
<path d="M6032 1033 c-5 -10 -60 -146 -122 -302 -62 -157 -122 -293 -132 -303
-24 -24 -119 -25 -139 -1 -11 12 -15 73 -17 271 -2 141 -1 270 2 287 5 25 13
34 39 42 25 8 9 10 -75 9 -60 -1 -108 -3 -108 -6 0 -3 9 -11 20 -18 18 -11 20
-23 20 -127 l0 -115 -170 0 -170 0 0 113 c0 61 4 118 8 124 4 7 18 14 30 16
56 8 23 14 -78 13 -60 0 -110 -4 -110 -8 0 -5 7 -8 15 -8 30 0 35 -39 35 -297
0 -277 -4 -301 -50 -314 -14 -4 36 -7 110 -6 74 0 121 2 103 4 -53 7 -58 21
-58 177 l0 141 165 0 165 0 3 -120 c4 -161 0 -182 -41 -194 -22 -6 45 -9 208
-9 132 0 227 3 210 7 -16 3 -31 13 -33 22 -1 9 11 55 29 102 l31 87 104 0 c91
0 105 -2 110 -17 4 -10 20 -53 36 -97 16 -43 27 -85 24 -92 -4 -11 14 -14 97
-13 72 0 94 3 74 9 -59 18 -52 4 -203 380 -57 140 -108 256 -113 258 -5 2 -14
-5 -19 -15z m41 -256 c20 -56 37 -105 37 -109 0 -5 -39 -8 -86 -8 -78 0 -85 2
-79 18 6 16 60 161 70 190 10 27 21 8 58 -91z"/>
<path d="M1510 1025 l35 -12 5 -76 c10 -130 2 -497 -10 -512 -6 -8 -21 -16
-33 -18 -12 -2 46 -5 129 -6 160 -1 197 6 251 46 60 45 81 136 47 205 -15 32
-77 84 -118 101 -18 7 -18 9 11 40 42 44 53 69 53 119 0 30 -7 50 -23 68 -40
45 -71 53 -232 55 -128 2 -145 1 -115 -10z m246 -46 c31 -29 48 -82 41 -131
-7 -55 -37 -80 -95 -82 l-47 -1 -3 109 c-1 61 0 116 3 124 8 21 72 9 101 -19z
m-25 -253 c112 -19 165 -231 70 -281 -49 -25 -120 -16 -143 19 -10 14 -10 260
-1 269 4 4 14 5 22 3 9 -2 32 -7 52 -10z"/>
<path d="M1988 1015 c36 -20 61 -56 179 -250 l48 -80 3 -117 c4 -125 -3 -154
-40 -161 -13 -2 36 -4 107 -4 72 0 116 2 98 4 -50 6 -57 24 -61 143 -5 125 -1
135 98 300 70 118 102 157 143 175 25 10 18 12 -62 11 -50 0 -91 -3 -91 -5 0
-2 7 -9 17 -16 15 -11 14 -16 -7 -61 -35 -73 -122 -224 -129 -224 -10 0 -144
240 -149 267 -2 13 1 23 7 23 6 0 11 4 11 8 0 5 -47 9 -104 8 l-105 0 37 -21z"/>
<path d="M4289 1025 c18 -6 37 -19 43 -28 6 -12 8 -139 6 -340 -3 -314 -4
-323 -27 -370 -22 -44 -55 -80 -84 -90 -7 -2 -9 -7 -5 -11 8 -9 83 37 126 78
19 17 46 54 60 81 l27 50 3 308 4 308 31 13 c29 12 20 13 -92 13 -105 -1 -120
-2 -92 -12z"/>
<path d="M4637 1028 c18 -5 37 -18 43 -29 8 -13 10 -109 8 -288 -3 -284 -5
-295 -51 -304 -12 -2 39 -4 113 -4 84 -1 121 2 97 7 -20 4 -41 10 -45 14 -8 9
-16 540 -8 571 3 12 18 25 33 31 21 7 -2 10 -97 10 -86 0 -115 -2 -93 -8z"/>
<path d="M4998 1033 c7 -3 16 -2 19 1 4 3 -2 6 -13 5 -11 0 -14 -3 -6 -6z"/>
<path d="M5448 1033 c7 -3 16 -2 19 1 4 3 -2 6 -13 5 -11 0 -14 -3 -6 -6z"/>
<path d="M6446 1015 c-14 -61 -18 -117 -7 -111 6 4 11 13 11 20 0 18 31 52 55
59 11 3 76 7 145 8 95 2 124 0 122 -10 -1 -6 -44 -76 -96 -154 -119 -182 -266
-415 -266 -422 0 -3 110 -5 244 -5 l244 0 11 50 c6 28 11 61 11 73 -1 18 -4
16 -20 -14 -10 -19 -31 -41 -47 -49 -34 -17 -303 -28 -303 -12 0 6 32 59 72
119 139 209 288 446 288 457 0 8 -72 11 -230 11 -221 0 -229 -1 -234 -20z"/>
</g>
</svg>
